<?xml version='1.0' encoding='utf-8'?>
<mxGraphModel dx="846" dy="900" grid="1" gridSize="10" guides="1" tooltips="1" connect="1" arrows="1" fold="1" page="1" pageScale="1" pageWidth="1200" pageHeight="1200" math="0" shadow="0"><!--Created by the Sustainable Energy Systems Analysis Group--><root><mxCell id="0" /><mxCell id="1" parent="0" /><mxCell id="grinding_mill" value="grinding_mill" style="shape=mxgraph.pid.crushers_grinding.crusher_(hammer);fillColor=#4877b9;verticalLabelPosition=bottom;" vertex="1" parent="1"><mxGeometry x="600" y="300" width="80" height="99" relative="0" as="geometry" /></mxCell><mxCell edge="1" parent="1" id="egrinding_mill-mixing_tank" style="edgeStyle=elbowEdgeStyle;html=1;orthogonal=1;fontFamily=Helvetica;fontSize=18;align=center;" source="grinding_mill" target="mixing_tank" value="s1"><mxGeometry relative="1" as="geometry" /></mxCell><mxCell edge="1" parent="1" id="iCornIn-grinding_mill" style="edgeStyle=elbowEdgeStyle;html=1;orthogonal=1;fontFamily=Helvetica;fontSize=12;align=center;" target="grinding_mill" source="iCornIn"><mxGeometry relative="1" as="geometry" /></mxCell><mxCell id="iCornIn" value="CornIn" style="rounded=1;whiteSpace=wrap;html=1;fontFamily=Helvetica;fontSize=18;align=center;" vertex="1" parent="1"><mxGeometry x="600" y="-300" width="100" height="60" as="geometry" /></mxCell><mxCell id="mixing_tank" value="mixing_tank" style="shape=mxgraph.pid.vessels.jacketed_mixing_vessel;fillColor=#4877b9;verticalLabelPosition=bottom;" vertex="1" parent="1"><mxGeometry x="1200" y="300" width="200" height="240" relative="0" as="geometry" /></mxCell><mxCell edge="1" parent="1" id="emixing_tank-slurry_mix" style="edgeStyle=elbowEdgeStyle;html=1;orthogonal=1;fontFamily=Helvetica;fontSize=18;align=center;" source="mixing_tank" target="slurry_mix" value="s2"><mxGeometry relative="1" as="geometry" /></mxCell><mxCell edge="1" parent="1" id="is1-mixing_tank" style="edgeStyle=elbowEdgeStyle;html=1;orthogonal=1;fontFamily=Helvetica;fontSize=12;align=center;"><mxGeometry relative="1" as="geometry" /></mxCell><mxCell edge="1" parent="1" id="iLimeIn-mixing_tank" style="edgeStyle=elbowEdgeStyle;html=1;orthogonal=1;fontFamily=Helvetica;fontSize=12;align=center;" target="mixing_tank" source="iLimeIn"><mxGeometry relative="1" as="geometry" /></mxCell><mxCell id="iLimeIn" value="LimeIn" style="rounded=1;whiteSpace=wrap;html=1;fontFamily=Helvetica;fontSize=18;align=center;" vertex="1" parent="1"><mxGeometry x="1200" y="-300" width="100" height="60" as="geometry" /></mxCell><mxCell edge="1" parent="1" id="iAamylase-mixing_tank" style="edgeStyle=elbowEdgeStyle;html=1;orthogonal=1;fontFamily=Helvetica;fontSize=12;align=center;" target="mixing_tank" source="iAamylase"><mxGeometry relative="1" as="geometry" /></mxCell><mxCell id="iAamylase" value="Aamylase" style="rounded=1;whiteSpace=wrap;html=1;fontFamily=Helvetica;fontSize=18;align=center;" vertex="1" parent="1"><mxGeometry x="1200" y="900" width="100" height="60" as="geometry" /></mxCell><mxCell edge="1" parent="1" id="iAmmoniaIn-mixing_tank" style="edgeStyle=elbowEdgeStyle;html=1;orthogonal=1;fontFamily=Helvetica;fontSize=12;align=center;" target="mixing_tank" source="iAmmoniaIn"><mxGeometry relative="1" as="geometry" /></mxCell><mxCell id="iAmmoniaIn" value="AmmoniaIn" style="rounded=1;whiteSpace=wrap;html=1;fontFamily=Helvetica;fontSize=18;align=center;" vertex="1" parent="1"><mxGeometry x="1500" y="-300" width="100" height="60" as="geometry" /></mxCell><mxCell id="slurry_mix" value="slurry_mix" style="shape=mxgraph.pid.vessels.jacketed_mixing_vessel;fillColor=#4877b9;verticalLabelPosition=bottom;" vertex="1" parent="1"><mxGeometry x="300" y="600" width="200" height="240" relative="0" as="geometry" /></mxCell><mxCell edge="1" parent="1" id="eslurry_mix-liquefaction_hx" style="edgeStyle=elbowEdgeStyle;html=1;orthogonal=1;fontFamily=Helvetica;fontSize=18;align=center;" source="slurry_mix" target="liquefaction_hx" value="s3"><mxGeometry relative="1" as="geometry" /></mxCell><mxCell edge="1" parent="1" id="is2-slurry_mix" style="edgeStyle=elbowEdgeStyle;html=1;orthogonal=1;fontFamily=Helvetica;fontSize=12;align=center;"><mxGeometry relative="1" as="geometry" /></mxCell><mxCell id="liquefaction_hx" value="liquefaction_hx" style="shape=mxgraph.pid.heat_exchangers.heater;fillColor=#4877b9;verticalLabelPosition=bottom;" vertex="1" parent="1"><mxGeometry x="900" y="600" width="100" height="60" relative="0" as="geometry" /></mxCell><mxCell edge="1" parent="1" id="eliquefaction_hx-liquefaction_tank" style="edgeStyle=elbowEdgeStyle;html=1;orthogonal=1;fontFamily=Helvetica;fontSize=18;align=center;" source="liquefaction_hx" target="liquefaction_tank" value="s4"><mxGeometry relative="1" as="geometry" /></mxCell><mxCell edge="1" parent="1" id="is3-liquefaction_hx" style="edgeStyle=elbowEdgeStyle;html=1;orthogonal=1;fontFamily=Helvetica;fontSize=12;align=center;"><mxGeometry relative="1" as="geometry" /></mxCell><mxCell id="liquefaction_tank" value="liquefaction_tank" style="shape=mxgraph.pid.vessels.jacketed_mixing_vessel;fillColor=#4877b9;verticalLabelPosition=bottom;" vertex="1" parent="1"><mxGeometry x="1500" y="600" width="200" height="240" relative="0" as="geometry" /></mxCell><mxCell edge="1" parent="1" id="eliquefaction_tank-cooling_tank" style="edgeStyle=elbowEdgeStyle;html=1;orthogonal=1;fontFamily=Helvetica;fontSize=18;align=center;" source="liquefaction_tank" target="cooling_tank" value="s5"><mxGeometry relative="1" as="geometry" /></mxCell><mxCell edge="1" parent="1" id="is4-liquefaction_tank" style="edgeStyle=elbowEdgeStyle;html=1;orthogonal=1;fontFamily=Helvetica;fontSize=12;align=center;"><mxGeometry relative="1" as="geometry" /></mxCell><mxCell id="cooling_tank" value="cooling_tank" style="shape=mxgraph.pid.vessels.tank_(floating_roof);fillColor=#4877b9;verticalLabelPosition=bottom;" vertex="1" parent="1"><mxGeometry x="600" y="900" width="160" height="240" relative="0" as="geometry" /></mxCell><mxCell edge="1" parent="1" id="ecooling_tank-saccharification_tank" style="edgeStyle=elbowEdgeStyle;html=1;orthogonal=1;fontFamily=Helvetica;fontSize=18;align=center;" source="cooling_tank" target="saccharification_tank" value="s6"><mxGeometry relative="1" as="geometry" /></mxCell><mxCell edge="1" parent="1" id="is5-cooling_tank" style="edgeStyle=elbowEdgeStyle;html=1;orthogonal=1;fontFamily=Helvetica;fontSize=12;align=center;"><mxGeometry relative="1" as="geometry" /></mxCell><mxCell id="saccharification_tank" value="saccharification_tank" style="shape=mxgraph.pid.vessels.jacketed_mixing_vessel;fillColor=#4877b9;verticalLabelPosition=bottom;" vertex="1" parent="1"><mxGeometry x="1200" y="900" width="200" height="240" relative="0" as="geometry" /></mxCell><mxCell edge="1" parent="1" id="esaccharification_tank-fermentation_tank" style="edgeStyle=elbowEdgeStyle;html=1;orthogonal=1;fontFamily=Helvetica;fontSize=18;align=center;" source="saccharification_tank" target="fermentation_tank" value="s7"><mxGeometry relative="1" as="geometry" /></mxCell><mxCell edge="1" parent="1" id="is6-saccharification_tank" style="edgeStyle=elbowEdgeStyle;html=1;orthogonal=1;fontFamily=Helvetica;fontSize=12;align=center;"><mxGeometry relative="1" as="geometry" /></mxCell><mxCell edge="1" parent="1" id="iGamylase-saccharification_tank" style="edgeStyle=elbowEdgeStyle;html=1;orthogonal=1;fontFamily=Helvetica;fontSize=12;align=center;" target="saccharification_tank" source="iGamylase"><mxGeometry relative="1" as="geometry" /></mxCell><mxCell id="iGamylase" value="Gamylase" style="rounded=1;whiteSpace=wrap;html=1;fontFamily=Helvetica;fontSize=18;align=center;" vertex="1" parent="1"><mxGeometry x="1200" y="300" width="100" height="60" as="geometry" /></mxCell><mxCell id="fermentation_tank" value="fermentation_tank" style="shape=mxgraph.pid.vessels.jacketed_mixing_vessel;fillColor=#4877b9;verticalLabelPosition=bottom;" vertex="1" parent="1"><mxGeometry x="300" y="1200" width="200" height="240" relative="0" as="geometry" /></mxCell><mxCell edge="1" parent="1" id="efermentation_tank-fermentation_splitter" style="edgeStyle=elbowEdgeStyle;html=1;orthogonal=1;fontFamily=Helvetica;fontSize=18;align=center;" source="fermentation_tank" target="fermentation_splitter" value="s8"><mxGeometry relative="1" as="geometry" /></mxCell><mxCell edge="1" parent="1" id="is7-fermentation_tank" style="edgeStyle=elbowEdgeStyle;html=1;orthogonal=1;fontFamily=Helvetica;fontSize=12;align=center;"><mxGeometry relative="1" as="geometry" /></mxCell><mxCell edge="1" parent="1" id="iYeastIn-fermentation_tank" style="edgeStyle=elbowEdgeStyle;html=1;orthogonal=1;fontFamily=Helvetica;fontSize=12;align=center;" target="fermentation_tank" source="iYeastIn"><mxGeometry relative="1" as="geometry" /></mxCell><mxCell id="iYeastIn" value="YeastIn" style="rounded=1;whiteSpace=wrap;html=1;fontFamily=Helvetica;fontSize=18;align=center;" vertex="1" parent="1"><mxGeometry x="300" y="600" width="100" height="60" as="geometry" /></mxCell><mxCell id="fermentation_splitter" value="fermentation_splitter" style="shape=mxgraph.pid.filters.filter;fillColor=#4877b9;verticalLabelPosition=bottom;" vertex="1" parent="1"><mxGeometry x="900" y="1200" width="30" height="30" relative="0" as="geometry" /></mxCell><mxCell edge="1" parent="1" id="efermentation_splitter-co2_scrubber_mixer" style="edgeStyle=elbowEdgeStyle;html=1;orthogonal=1;fontFamily=Helvetica;fontSize=18;align=center;" source="fermentation_splitter" target="co2_scrubber_mixer" value="s9"><mxGeometry relative="1" as="geometry" /></mxCell><mxCell edge="1" parent="1" id="efermentation_splitter-degasser" style="edgeStyle=elbowEdgeStyle;html=1;orthogonal=1;fontFamily=Helvetica;fontSize=18;align=center;" source="fermentation_splitter" target="degasser" value="s10"><mxGeometry relative="1" as="geometry" /></mxCell><mxCell edge="1" parent="1" id="is8-fermentation_splitter" style="edgeStyle=elbowEdgeStyle;html=1;orthogonal=1;fontFamily=Helvetica;fontSize=12;align=center;"><mxGeometry relative="1" as="geometry" /></mxCell><mxCell id="degasser" value="degasser" style="shape=mxgraph.pid.filters.filter;fillColor=#4877b9;verticalLabelPosition=bottom;" vertex="1" parent="1"><mxGeometry x="300" y="1500" width="30" height="30" relative="0" as="geometry" /></mxCell><mxCell edge="1" parent="1" id="edegasser-co2_scrubber_mixer" style="edgeStyle=elbowEdgeStyle;html=1;orthogonal=1;fontFamily=Helvetica;fontSize=18;align=center;" source="degasser" target="co2_scrubber_mixer" value="degasser_to_co2_scrubber"><mxGeometry relative="1" as="geometry" /></mxCell><mxCell edge="1" parent="1" id="edegasser-beer_column" style="edgeStyle=elbowEdgeStyle;html=1;orthogonal=1;fontFamily=Helvetica;fontSize=18;align=center;" source="degasser" target="beer_column" value="s12"><mxGeometry relative="1" as="geometry" /></mxCell><mxCell edge="1" parent="1" id="is10-degasser" style="edgeStyle=elbowEdgeStyle;html=1;orthogonal=1;fontFamily=Helvetica;fontSize=12;align=center;"><mxGeometry relative="1" as="geometry" /></mxCell><mxCell id="beer_column" value="beer_column" style="shape=mxgraph.pid.vessels.tower_with_packing;fillColor=#4877b9;verticalLabelPosition=bottom;" vertex="1" parent="1"><mxGeometry x="1200" y="1500" width="200" height="220" relative="0" as="geometry" /></mxCell><mxCell edge="1" parent="1" id="ebeer_column-rectifier_mixer" style="edgeStyle=elbowEdgeStyle;html=1;orthogonal=1;fontFamily=Helvetica;fontSize=18;align=center;" source="beer_column" target="rectifier_mixer" value="s13"><mxGeometry relative="1" as="geometry" /></mxCell><mxCell edge="1" parent="1" id="ebeer_column-centrifuge" style="edgeStyle=elbowEdgeStyle;html=1;orthogonal=1;fontFamily=Helvetica;fontSize=18;align=center;" source="beer_column" target="centrifuge" value="s14"><mxGeometry relative="1" as="geometry" /></mxCell><mxCell edge="1" parent="1" id="is12-beer_column" style="edgeStyle=elbowEdgeStyle;html=1;orthogonal=1;fontFamily=Helvetica;fontSize=12;align=center;"><mxGeometry relative="1" as="geometry" /></mxCell><mxCell id="centrifuge" value="centrifuge" style="shape=mxgraph.pid.centrifuges.centrifuge_(solid_shell);fillColor=#4877b9;verticalLabelPosition=bottom;" vertex="1" parent="1"><mxGeometry x="600" y="2400" width="100" height="174" relative="0" as="geometry" /></mxCell><mxCell edge="1" parent="1" id="ecentrifuge-dryer" style="edgeStyle=elbowEdgeStyle;html=1;orthogonal=1;fontFamily=Helvetica;fontSize=18;align=center;" source="centrifuge" target="dryer" value="s17"><mxGeometry relative="1" as="geometry" /></mxCell><mxCell edge="1" parent="1" id="ecentrifuge-thin_stillage" style="edgeStyle=elbowEdgeStyle;html=1;orthogonal=1;fontFamily=Helvetica;fontSize=18;align=center;" source="centrifuge" target="thin_stillage" value="s18"><mxGeometry relative="1" as="geometry" /></mxCell><mxCell edge="1" parent="1" id="is14-centrifuge" style="edgeStyle=elbowEdgeStyle;html=1;orthogonal=1;fontFamily=Helvetica;fontSize=12;align=center;"><mxGeometry relative="1" as="geometry" /></mxCell><mxCell id="thin_stillage" value="thin_stillage" style="shape=mxgraph.pid.vessels.jacketed_mixing_vessel;fillColor=#4877b9;verticalLabelPosition=bottom;" vertex="1" parent="1"><mxGeometry x="1500" y="2400" width="200" height="240" relative="0" as="geometry" /></mxCell><mxCell edge="1" parent="1" id="ethin_stillage-evaporator" style="edgeStyle=elbowEdgeStyle;html=1;orthogonal=1;fontFamily=Helvetica;fontSize=18;align=center;" source="thin_stillage" target="evaporator" value="s20"><mxGeometry relative="1" as="geometry" /></mxCell><mxCell edge="1" parent="1" id="is18-thin_stillage" style="edgeStyle=elbowEdgeStyle;html=1;orthogonal=1;fontFamily=Helvetica;fontSize=12;align=center;"><mxGeometry relative="1" as="geometry" /></mxCell><mxCell id="evaporator" value="evaporator" style="shape=mxgraph.pid.filters.filter;fillColor=#4877b9;verticalLabelPosition=bottom;" vertex="1" parent="1"><mxGeometry x="600" y="3000" width="30" height="30" relative="0" as="geometry" /></mxCell><mxCell edge="1" parent="1" source="evaporator" target="oevaporatorGas" style="edgeStyle=elbowEdgeStyle;html=1;orthogonal=1;fontFamily=Helvetica;fontSize=18;align=center;"><mxGeometry relative="1" as="geometry" /></mxCell><mxCell id="oevaporatorGas" value="evaporatorGas" style="rounded=1;whiteSpace=wrap;html=1;fontFamily=Helvetica;fontSize=12;align=center;" vertex="1" parent="1"><mxGeometry x="1800" y="3000" width="100" height="60" as="geometry" /></mxCell><mxCell edge="1" parent="1" id="eevaporator-ddgs_mixer" style="edgeStyle=elbowEdgeStyle;html=1;orthogonal=1;fontFamily=Helvetica;fontSize=18;align=center;" source="evaporator" target="ddgs_mixer" value="stillage"><mxGeometry relative="1" as="geometry" /></mxCell><mxCell edge="1" parent="1" id="is20-evaporator" style="edgeStyle=elbowEdgeStyle;html=1;orthogonal=1;fontFamily=Helvetica;fontSize=12;align=center;"><mxGeometry relative="1" as="geometry" /></mxCell><mxCell id="dryer" value="dryer" style="shape=mxgraph.pid.filters.filter;fillColor=#4877b9;verticalLabelPosition=bottom;" vertex="1" parent="1"><mxGeometry x="1200" y="2400" width="30" height="30" relative="0" as="geometry" /></mxCell><mxCell edge="1" parent="1" id="edryer-ddgs_mixer" style="edgeStyle=elbowEdgeStyle;html=1;orthogonal=1;fontFamily=Helvetica;fontSize=18;align=center;" source="dryer" target="ddgs_mixer" value="s19"><mxGeometry relative="1" as="geometry" /></mxCell><mxCell edge="1" parent="1" source="dryer" target="oDryerWaste" style="edgeStyle=elbowEdgeStyle;html=1;orthogonal=1;fontFamily=Helvetica;fontSize=18;align=center;"><mxGeometry relative="1" as="geometry" /></mxCell><mxCell id="oDryerWaste" value="DryerWaste" style="rounded=1;whiteSpace=wrap;html=1;fontFamily=Helvetica;fontSize=12;align=center;" vertex="1" parent="1"><mxGeometry x="1800" y="2400" width="100" height="60" as="geometry" /></mxCell><mxCell edge="1" parent="1" id="is17-dryer" style="edgeStyle=elbowEdgeStyle;html=1;orthogonal=1;fontFamily=Helvetica;fontSize=12;align=center;"><mxGeometry relative="1" as="geometry" /></mxCell><mxCell id="ddgs_mixer" value="ddgs_mixer" style="shape=mxgraph.pid.mixers.in-line_static_mixer;fillColor=#4877b9;verticalLabelPosition=bottom;" vertex="1" parent="1"><mxGeometry x="300" y="2700" width="70" height="20" relative="0" as="geometry" /></mxCell><mxCell edge="1" parent="1" source="ddgs_mixer" target="oDDGS" style="edgeStyle=elbowEdgeStyle;html=1;orthogonal=1;fontFamily=Helvetica;fontSize=18;align=center;"><mxGeometry relative="1" as="geometry" /></mxCell><mxCell id="oDDGS" value="DDGS" style="rounded=1;whiteSpace=wrap;html=1;fontFamily=Helvetica;fontSize=12;align=center;" vertex="1" parent="1"><mxGeometry x="1800" y="2700" width="100" height="60" as="geometry" /></mxCell><mxCell edge="1" parent="1" id="is19-ddgs_mixer" style="edgeStyle=elbowEdgeStyle;html=1;orthogonal=1;fontFamily=Helvetica;fontSize=12;align=center;"><mxGeometry relative="1" as="geometry" /></mxCell><mxCell edge="1" parent="1" id="istillage-ddgs_mixer" style="edgeStyle=elbowEdgeStyle;html=1;orthogonal=1;fontFamily=Helvetica;fontSize=12;align=center;"><mxGeometry relative="1" as="geometry" /></mxCell><mxCell id="rectifier_mixer" value="rectifier_mixer" style="shape=mxgraph.pid.mixers.in-line_static_mixer;fillColor=#fcaf17;verticalLabelPosition=bottom;" vertex="1" parent="1"><mxGeometry x="300" y="1800" width="70" height="20" relative="0" as="geometry" /></mxCell><mxCell edge="1" parent="1" id="erectifier_mixer-rectifier" style="edgeStyle=elbowEdgeStyle;html=1;orthogonal=1;fontFamily=Helvetica;fontSize=18;align=center;" source="rectifier_mixer" target="rectifier" value="s15"><mxGeometry relative="1" as="geometry" /></mxCell><mxCell edge="1" parent="1" id="is13-rectifier_mixer" style="edgeStyle=elbowEdgeStyle;html=1;orthogonal=1;fontFamily=Helvetica;fontSize=12;align=center;"><mxGeometry relative="1" as="geometry" /></mxCell><mxCell edge="1" parent="1" id="istripping_to_rectifier-rectifier_mixer" style="edgeStyle=elbowEdgeStyle;html=1;orthogonal=1;fontFamily=Helvetica;fontSize=12;align=center;"><mxGeometry relative="1" as="geometry" /></mxCell><mxCell id="rectifier" value="rectifier" style="shape=mxgraph.pid.vessels.tower_with_packing;fillColor=#fcaf17;verticalLabelPosition=bottom;" vertex="1" parent="1"><mxGeometry x="900" y="1800" width="200" height="220" relative="0" as="geometry" /></mxCell><mxCell edge="1" parent="1" source="rectifier" target="oEthanol_out" style="edgeStyle=elbowEdgeStyle;html=1;orthogonal=1;fontFamily=Helvetica;fontSize=18;align=center;"><mxGeometry relative="1" as="geometry" /></mxCell><mxCell id="oEthanol_out" value="Ethanol_out" style="rounded=1;whiteSpace=wrap;html=1;fontFamily=Helvetica;fontSize=12;align=center;" vertex="1" parent="1"><mxGeometry x="1800" y="1800" width="100" height="60" as="geometry" /></mxCell><mxCell edge="1" parent="1" id="erectifier-stripping" style="edgeStyle=elbowEdgeStyle;html=1;orthogonal=1;fontFamily=Helvetica;fontSize=18;align=center;" source="rectifier" target="stripping" value="s16"><mxGeometry relative="1" as="geometry" /></mxCell><mxCell edge="1" parent="1" id="is15-rectifier" style="edgeStyle=elbowEdgeStyle;html=1;orthogonal=1;fontFamily=Helvetica;fontSize=12;align=center;"><mxGeometry relative="1" as="geometry" /></mxCell><mxCell id="stripping" value="stripping" style="shape=mxgraph.pid.vessels.tower_with_packing;fillColor=#fcaf17;verticalLabelPosition=bottom;" vertex="1" parent="1"><mxGeometry x="1500" y="1800" width="200" height="220" relative="0" as="geometry" /></mxCell><mxCell edge="1" parent="1" id="estripping-rectifier_mixer" style="edgeStyle=elbowEdgeStyle;html=1;orthogonal=1;fontFamily=Helvetica;fontSize=18;align=center;" source="stripping" target="rectifier_mixer" value="stripping_to_rectifier"><mxGeometry relative="1" as="geometry" /></mxCell><mxCell edge="1" parent="1" source="stripping" target="oStrippingWaste" style="edgeStyle=elbowEdgeStyle;html=1;orthogonal=1;fontFamily=Helvetica;fontSize=18;align=center;"><mxGeometry relative="1" as="geometry" /></mxCell><mxCell id="oStrippingWaste" value="StrippingWaste" style="rounded=1;whiteSpace=wrap;html=1;fontFamily=Helvetica;fontSize=12;align=center;" vertex="1" parent="1"><mxGeometry x="1800" y="2100" width="100" height="60" as="geometry" /></mxCell><mxCell edge="1" parent="1" id="is16-stripping" style="edgeStyle=elbowEdgeStyle;html=1;orthogonal=1;fontFamily=Helvetica;fontSize=12;align=center;"><mxGeometry relative="1" as="geometry" /></mxCell><mxCell id="co2_scrubber_mixer" value="co2_scrubber_mixer" style="shape=mxgraph.pid.mixers.in-line_static_mixer;fillColor=#4877b9;verticalLabelPosition=bottom;" vertex="1" parent="1"><mxGeometry x="1500" y="1200" width="70" height="20" relative="0" as="geometry" /></mxCell><mxCell edge="1" parent="1" id="eco2_scrubber_mixer-co2_scrubber" style="edgeStyle=elbowEdgeStyle;html=1;orthogonal=1;fontFamily=Helvetica;fontSize=18;align=center;" source="co2_scrubber_mixer" target="co2_scrubber" value="s11"><mxGeometry relative="1" as="geometry" /></mxCell><mxCell edge="1" parent="1" id="is9-co2_scrubber_mixer" style="edgeStyle=elbowEdgeStyle;html=1;orthogonal=1;fontFamily=Helvetica;fontSize=12;align=center;"><mxGeometry relative="1" as="geometry" /></mxCell><mxCell edge="1" parent="1" id="iWaterIn-co2_scrubber_mixer" style="edgeStyle=elbowEdgeStyle;html=1;orthogonal=1;fontFamily=Helvetica;fontSize=12;align=center;" target="co2_scrubber_mixer" source="iWaterIn"><mxGeometry relative="1" as="geometry" /></mxCell><mxCell id="iWaterIn" value="WaterIn" style="rounded=1;whiteSpace=wrap;html=1;fontFamily=Helvetica;fontSize=18;align=center;" vertex="1" parent="1"><mxGeometry x="1500" y="600" width="100" height="60" as="geometry" /></mxCell><mxCell edge="1" parent="1" id="idegasser_to_co2_scrubber-co2_scrubber_mixer" style="edgeStyle=elbowEdgeStyle;html=1;orthogonal=1;fontFamily=Helvetica;fontSize=12;align=center;"><mxGeometry relative="1" as="geometry" /></mxCell><mxCell id="co2_scrubber" value="co2_scrubber" style="shape=mxgraph.pid.filters.filter;fillColor=#4877b9;verticalLabelPosition=bottom;" vertex="1" parent="1"><mxGeometry x="600" y="1500" width="30" height="30" relative="0" as="geometry" /></mxCell><mxCell edge="1" parent="1" source="co2_scrubber" target="oCO2_out" style="edgeStyle=elbowEdgeStyle;html=1;orthogonal=1;fontFamily=Helvetica;fontSize=18;align=center;"><mxGeometry relative="1" as="geometry" /></mxCell><mxCell id="oCO2_out" value="CO2_out" style="rounded=1;whiteSpace=wrap;html=1;fontFamily=Helvetica;fontSize=12;align=center;" vertex="1" parent="1"><mxGeometry x="1800" y="1500" width="100" height="60" as="geometry" /></mxCell><mxCell edge="1" parent="1" source="co2_scrubber" target="oScrubberWaste" style="edgeStyle=elbowEdgeStyle;html=1;orthogonal=1;fontFamily=Helvetica;fontSize=18;align=center;"><mxGeometry relative="1" as="geometry" /></mxCell><mxCell id="oScrubberWaste" value="ScrubberWaste" style="rounded=1;whiteSpace=wrap;html=1;fontFamily=Helvetica;fontSize=12;align=center;" vertex="1" parent="1"><mxGeometry x="1800" y="1500" width="100" height="60" as="geometry" /></mxCell><mxCell edge="1" parent="1" id="is11-co2_scrubber" style="edgeStyle=elbowEdgeStyle;html=1;orthogonal=1;fontFamily=Helvetica;fontSize=12;align=center;"><mxGeometry relative="1" as="geometry" /></mxCell></root></mxGraphModel>